<svg id="svg" version="1.1" xmlns="http://www.w3.org/2000/svg" xmlns:xlink="http://www.w3.org/1999/xlink" width="400" height="400" viewBox="0, 0, 400,400"><g id="svgg"><path id="path0" d="M188.000 111.016 C 145.063 116.315,110.258 148.316,101.586 190.469 C 99.019 202.943,98.940 219.713,101.393 231.000 C 104.811 246.728,111.693 261.726,120.746 273.179 C 123.367 276.495,124.384 275.863,108.600 280.726 C 105.740 281.608,101.600 282.874,99.400 283.541 C 97.200 284.207,92.700 285.597,89.400 286.630 C 86.100 287.663,82.905 288.594,82.300 288.699 C 81.695 288.805,81.200 289.011,81.200 289.157 C 81.200 289.349,138.762 282.320,139.500 282.038 C 139.555 282.017,139.600 276.575,139.600 269.944 L 139.600 257.888 138.141 256.644 C 134.610 253.634,134.940 254.703,134.611 245.234 C 134.434 240.153,134.463 236.577,134.682 236.358 C 134.897 236.143,140.814 236.033,148.825 236.095 L 162.600 236.200 162.477 245.000 L 162.355 253.800 161.277 254.741 C 160.685 255.259,159.615 256.189,158.900 256.807 L 157.600 257.932 157.600 268.699 C 157.600 280.954,157.373 279.972,160.105 279.565 C 161.257 279.393,163.633 279.074,165.385 278.855 C 169.106 278.390,169.600 277.950,169.600 275.108 C 169.600 273.024,168.631 270.694,167.243 269.438 C 165.919 268.241,166.214 268.000,169.000 268.000 C 172.037 268.000,172.025 268.023,170.174 265.864 C 164.877 259.683,163.591 248.987,167.214 241.245 C 168.891 237.661,173.649 233.028,180.000 228.795 C 188.726 222.978,193.670 218.558,197.457 213.190 C 199.842 209.808,200.198 209.782,202.174 212.850 C 205.371 217.812,210.736 222.582,220.600 229.233 C 225.925 232.824,230.978 237.740,232.489 240.800 C 236.401 248.724,235.223 259.556,229.754 265.945 C 227.984 268.013,227.976 268.000,231.000 268.000 C 233.879 268.000,234.081 268.211,232.562 269.630 C 230.508 271.549,229.326 276.686,230.637 277.997 C 231.083 278.443,241.876 279.991,242.210 279.657 C 242.315 279.552,242.400 274.621,242.400 268.699 L 242.400 257.932 241.100 256.807 C 240.385 256.189,239.294 255.259,238.676 254.741 L 237.551 253.799 237.313 244.894 L 237.075 235.990 251.238 236.095 L 265.400 236.200 265.246 244.600 C 265.067 254.385,265.200 253.834,262.494 255.968 L 260.388 257.628 260.494 269.899 L 260.600 282.171 269.600 283.070 C 277.294 283.839,287.746 285.113,297.000 286.410 C 303.888 287.375,310.813 288.308,314.500 288.767 C 317.571 289.149,317.407 288.710,314.100 287.697 C 312.615 287.242,308.970 286.124,306.000 285.213 C 294.943 281.819,282.124 277.915,279.800 277.232 C 276.867 276.371,276.746 275.928,278.777 273.473 C 294.377 254.626,303.335 222.500,299.656 198.600 C 290.949 142.026,242.794 104.253,188.000 111.016 M149.116 136.500 C 149.370 137.875,149.781 140.440,150.029 142.200 C 150.404 144.858,150.666 145.569,151.574 146.400 C 152.915 147.627,153.141 148.223,153.618 151.787 C 153.824 153.334,154.164 155.740,154.371 157.134 C 154.940 160.948,155.172 160.800,148.600 160.800 C 142.130 160.800,142.332 160.912,142.805 157.589 C 142.977 156.385,143.339 153.690,143.609 151.600 C 144.057 148.139,144.216 147.691,145.389 146.577 C 146.420 145.597,146.729 144.920,146.941 143.177 C 148.183 132.960,148.360 132.415,149.116 136.500 M251.737 135.500 C 251.842 135.885,252.161 138.268,252.446 140.795 C 252.942 145.197,253.019 145.442,254.279 146.596 C 255.620 147.824,257.774 158.326,257.065 160.175 C 256.772 160.940,245.847 161.123,245.382 160.371 C 244.502 158.947,246.547 147.953,247.916 146.752 C 249.353 145.490,249.432 145.193,250.224 138.000 C 250.583 134.745,251.236 133.665,251.737 135.500 M158.721 167.400 C 158.888 172.935,158.697 173.685,156.791 175.006 L 155.200 176.109 155.200 181.254 L 155.200 186.400 148.833 186.400 C 141.422 186.400,142.058 186.928,142.314 180.980 L 142.505 176.559 141.267 175.518 C 140.586 174.945,139.811 174.404,139.543 174.314 C 138.752 174.051,137.960 164.173,138.673 163.460 C 138.824 163.309,143.369 163.234,148.773 163.293 L 158.600 163.400 158.721 167.400 M261.368 167.803 C 261.327 173.341,261.151 173.955,259.221 175.279 L 257.647 176.359 257.884 181.379 L 258.122 186.400 251.441 186.400 L 244.760 186.400 244.828 181.300 L 244.897 176.200 243.349 175.074 C 241.530 173.752,241.257 172.762,241.223 167.367 C 241.194 162.768,240.175 163.169,251.573 163.293 L 261.400 163.400 261.368 167.803 M203.040 180.553 C 205.467 181.199,208.300 182.791,209.520 184.194 C 210.933 185.819,210.548 186.039,208.314 184.881 C 201.539 181.369,193.848 185.942,193.915 193.443 C 193.982 200.890,202.093 205.386,208.570 201.565 C 210.780 200.261,210.845 201.057,208.688 203.015 C 203.672 207.571,196.307 207.516,191.156 202.884 C 181.259 193.987,190.225 177.140,203.040 180.553 M160.567 189.443 C 161.112 189.652,161.200 190.696,161.200 196.960 L 161.200 204.233 159.400 206.000 L 157.600 207.767 157.600 220.683 L 157.600 233.600 148.862 233.600 L 140.124 233.600 139.864 227.900 C 139.720 224.765,139.602 218.847,139.601 214.748 L 139.600 207.296 137.800 205.821 L 136.000 204.346 136.000 197.003 C 136.000 190.345,136.065 189.642,136.700 189.476 C 137.769 189.196,159.846 189.166,160.567 189.443 M263.367 189.443 C 263.912 189.652,264.000 190.696,264.000 196.960 L 264.000 204.233 262.200 206.000 L 260.400 207.767 260.395 219.783 C 260.392 226.392,260.280 232.208,260.146 232.708 L 259.903 233.615 251.251 233.508 L 242.600 233.400 242.400 220.323 L 242.200 207.247 240.500 205.792 L 238.800 204.338 238.800 197.002 C 238.800 191.508,238.926 189.616,239.300 189.465 C 240.021 189.174,262.613 189.153,263.367 189.443 " stroke="none" fill="#145c4c" fill-rule="evenodd"></path><path id="path1" d="M0.000 200.000 L 0.000 400.000 200.000 400.000 L 400.000 400.000 400.000 200.000 L 400.000 0.000 200.000 0.000 L 0.000 0.000 0.000 200.000 M212.638 110.411 C 290.005 120.687,327.660 211.588,279.993 273.009 C 278.859 274.470,278.017 275.750,278.121 275.854 C 278.225 275.958,287.735 278.923,299.255 282.442 C 320.525 288.940,322.400 289.560,322.400 290.098 C 322.400 290.533,321.228 290.475,316.651 289.818 C 314.423 289.498,309.810 288.858,306.400 288.397 C 302.990 287.936,297.140 287.129,293.400 286.604 C 285.233 285.459,274.751 284.213,266.673 283.428 C 258.829 282.666,259.600 284.162,259.600 269.715 L 259.600 257.528 260.860 256.464 C 261.552 255.879,262.644 254.949,263.286 254.398 L 264.453 253.397 264.527 244.998 L 264.600 236.600 251.345 236.495 C 240.949 236.412,238.052 236.498,237.915 236.895 C 237.259 238.795,238.238 253.702,239.060 254.336 C 239.533 254.701,240.568 255.503,241.360 256.117 L 242.800 257.234 242.800 268.593 C 242.800 276.195,242.659 280.040,242.374 280.216 C 241.050 281.035,230.451 279.090,229.975 277.941 C 229.223 276.125,229.682 272.461,230.901 270.544 C 232.156 268.571,232.047 268.400,229.533 268.400 C 227.153 268.400,227.065 267.916,229.018 265.579 C 233.387 260.350,235.131 253.650,233.839 247.062 C 232.378 239.609,229.638 236.274,219.000 228.998 C 209.752 222.673,203.269 216.637,200.851 212.100 C 200.167 210.816,199.948 210.930,198.118 213.525 C 194.305 218.932,190.425 222.418,180.748 229.132 C 177.529 231.365,173.941 234.049,172.776 235.096 C 164.084 242.903,163.338 256.330,171.066 265.841 C 172.870 268.061,172.785 268.400,170.424 268.400 C 168.223 268.400,167.608 268.904,168.546 269.940 C 170.278 271.855,170.855 275.336,169.841 277.763 L 169.283 279.100 165.141 279.619 C 162.864 279.905,160.190 280.152,159.200 280.169 L 157.400 280.200 157.294 268.747 L 157.188 257.294 158.528 256.147 C 159.265 255.516,160.347 254.596,160.934 254.103 L 162.000 253.205 162.000 244.797 L 162.000 236.389 148.700 236.495 L 135.400 236.600 135.280 243.600 C 135.114 253.276,135.149 253.441,137.801 255.400 L 139.966 257.000 139.983 269.709 L 140.000 282.417 139.100 282.758 C 137.047 283.537,77.200 290.615,77.200 290.079 C 77.200 289.634,78.892 289.074,96.200 283.792 C 120.525 276.369,121.681 275.988,121.482 275.470 C 121.382 275.208,120.143 273.461,118.729 271.586 C 93.545 238.196,92.161 190.504,115.359 155.460 C 136.835 123.018,174.887 105.397,212.638 110.411 M148.282 138.400 C 148.139 139.170,147.899 141.045,147.749 142.568 C 147.512 144.968,147.292 145.538,146.094 146.865 C 144.787 148.311,142.728 158.403,143.474 159.700 C 143.758 160.192,154.000 160.065,154.000 159.569 C 154.000 155.628,152.254 148.099,151.111 147.109 C 149.939 146.094,149.805 145.701,149.196 141.509 C 148.660 137.814,148.495 137.253,148.282 138.400 M250.431 142.088 C 249.956 145.446,249.791 145.884,248.581 146.992 C 247.277 148.187,246.000 154.068,246.000 158.883 L 246.000 160.000 251.200 160.000 C 257.294 160.000,256.758 160.822,255.661 153.157 C 254.979 148.389,254.869 148.050,253.656 146.957 C 252.478 145.895,252.335 145.495,251.922 142.100 C 251.357 137.459,251.087 137.456,250.431 142.088 M139.375 164.520 C 139.263 164.814,139.222 166.917,139.285 169.194 L 139.400 173.335 141.200 174.605 L 143.000 175.874 142.850 180.937 L 142.699 186.000 148.301 186.000 C 155.195 186.000,154.882 186.272,154.535 180.587 L 154.270 176.255 156.101 174.628 L 157.932 173.000 158.066 168.600 L 158.200 164.200 148.890 164.093 C 141.416 164.006,139.540 164.091,139.375 164.520 M241.890 164.300 C 241.803 164.465,241.813 166.554,241.913 168.941 L 242.094 173.283 243.896 174.541 L 245.698 175.800 245.488 180.460 C 245.226 186.311,244.878 186.000,251.680 186.000 L 257.200 186.000 257.200 180.826 L 257.200 175.653 258.900 174.512 L 260.600 173.371 260.713 168.686 L 260.825 164.000 251.436 164.000 C 246.272 164.000,241.976 164.135,241.890 164.300 M196.600 181.360 C 185.971 184.721,184.380 198.861,194.031 204.200 C 196.955 205.818,202.738 205.965,205.500 204.491 C 207.725 203.304,207.704 203.288,204.209 203.512 C 198.113 203.903,193.664 199.946,193.271 193.783 C 192.813 186.588,200.085 181.108,207.018 183.423 C 207.461 183.571,207.280 183.317,206.600 182.837 C 203.973 180.982,199.762 180.360,196.600 181.360 M137.900 189.887 L 136.800 190.053 136.800 196.943 L 136.800 203.833 138.600 205.600 L 140.400 207.367 140.400 219.803 C 140.400 228.943,140.527 232.367,140.880 232.720 C 141.557 233.397,156.043 233.397,156.720 232.720 C 157.073 232.367,157.200 228.921,157.200 219.705 L 157.200 207.170 159.000 205.421 L 160.800 203.671 160.800 196.888 L 160.800 190.105 159.300 189.857 C 157.676 189.588,139.703 189.613,137.900 189.887 M240.300 189.887 L 239.200 190.053 239.200 196.805 L 239.200 203.556 240.995 205.238 L 242.789 206.920 242.895 219.760 L 243.000 232.600 251.240 232.708 L 259.481 232.816 259.696 219.945 L 259.912 207.073 261.756 205.380 L 263.600 203.687 263.600 196.898 L 263.600 190.109 261.744 189.854 C 259.758 189.582,242.135 189.609,240.300 189.887 " stroke="none" fill="#fbfbfb" fill-rule="evenodd"></path><path id="path2" d="M250.538 137.017 C 250.408 137.357,250.413 137.747,250.551 137.884 C 250.688 138.021,250.800 137.823,250.800 137.443 C 250.800 137.063,250.980 136.864,251.200 137.000 C 251.420 137.136,251.600 137.057,251.600 136.824 C 251.600 136.175,250.806 136.320,250.538 137.017 M142.524 180.600 C 142.526 181.920,142.601 182.412,142.690 181.693 C 142.779 180.974,142.777 179.894,142.686 179.293 C 142.595 178.692,142.522 179.280,142.524 180.600 M154.920 183.600 C 154.920 184.810,154.995 185.305,155.087 184.700 C 155.178 184.095,155.178 183.105,155.087 182.500 C 154.995 181.895,154.920 182.390,154.920 183.600 M244.909 184.000 C 244.909 184.990,244.987 185.395,245.082 184.900 C 245.178 184.405,245.178 183.595,245.082 183.100 C 244.987 182.605,244.909 183.010,244.909 184.000 M145.718 186.298 C 147.433 186.373,150.133 186.372,151.718 186.297 C 153.303 186.221,151.900 186.159,148.600 186.160 C 145.300 186.161,144.003 186.222,145.718 186.298 M248.518 186.298 C 250.233 186.373,252.933 186.372,254.518 186.297 C 256.103 186.221,254.700 186.159,251.400 186.160 C 248.100 186.161,246.803 186.222,248.518 186.298 M263.765 197.000 C 263.766 200.960,263.826 202.526,263.898 200.480 C 263.971 198.434,263.971 195.194,263.898 193.280 C 263.824 191.366,263.765 193.040,263.765 197.000 M242.486 220.076 C 242.438 227.048,242.535 232.836,242.700 232.939 C 242.865 233.041,242.954 229.317,242.898 224.662 C 242.708 208.879,242.571 207.360,242.486 220.076 M157.378 220.600 C 157.378 227.420,157.432 230.266,157.499 226.925 C 157.566 223.584,157.566 218.004,157.499 214.525 C 157.433 211.046,157.378 213.780,157.378 220.600 M140.137 229.800 C 140.139 231.560,140.209 232.230,140.293 231.289 C 140.378 230.349,140.377 228.909,140.291 228.089 C 140.205 227.270,140.136 228.040,140.137 229.800 M144.700 233.498 C 146.955 233.570,150.645 233.570,152.900 233.498 C 155.155 233.427,153.310 233.369,148.800 233.369 C 144.290 233.369,142.445 233.427,144.700 233.498 M135.061 236.300 C 134.959 236.465,138.863 236.554,143.738 236.498 C 160.558 236.305,162.156 236.173,148.724 236.086 C 141.312 236.039,135.164 236.135,135.061 236.300 M242.600 236.285 C 254.717 236.566,265.108 236.573,264.939 236.300 C 264.836 236.135,258.688 236.039,251.276 236.086 C 243.864 236.134,239.960 236.223,242.600 236.285 M161.997 249.882 C 161.889 252.127,161.942 253.821,162.116 253.646 C 162.290 253.471,162.378 251.634,162.313 249.564 L 162.195 245.800 161.997 249.882 M237.714 251.800 C 237.717 252.900,237.795 253.303,237.887 252.695 C 237.979 252.086,237.977 251.186,237.882 250.695 C 237.787 250.203,237.711 250.700,237.714 251.800 M157.375 268.800 C 157.375 274.850,157.431 277.325,157.499 274.300 C 157.567 271.275,157.567 266.325,157.499 263.300 C 157.431 260.275,157.375 262.750,157.375 268.800 M242.575 268.800 C 242.575 274.850,242.631 277.325,242.699 274.300 C 242.767 271.275,242.767 266.325,242.699 263.300 C 242.631 260.275,242.575 262.750,242.575 268.800 M166.800 268.376 C 166.800 268.583,167.008 268.881,167.262 269.038 C 167.540 269.210,167.615 269.148,167.451 268.883 C 167.270 268.590,167.883 268.393,169.290 268.295 L 171.400 268.148 169.100 268.074 C 167.835 268.033,166.800 268.169,166.800 268.376 M230.511 268.296 C 232.066 268.393,232.733 268.585,232.549 268.882 C 232.383 269.151,232.460 269.210,232.745 269.034 C 233.709 268.438,232.678 268.002,230.476 268.076 L 228.200 268.151 230.511 268.296 " stroke="none" fill="#8caca4" fill-rule="evenodd"></path><path id="path3" d="M197.700 110.296 C 198.965 110.375,201.035 110.375,202.300 110.296 C 203.565 110.216,202.530 110.151,200.000 110.151 C 197.470 110.151,196.435 110.216,197.700 110.296 M187.400 110.811 C 186.672 111.002,187.302 111.041,189.000 110.909 C 190.540 110.789,191.875 110.625,191.967 110.545 C 192.273 110.278,188.616 110.491,187.400 110.811 M207.633 110.544 C 207.725 110.624,209.150 110.785,210.800 110.903 C 212.558 111.028,213.303 110.988,212.600 110.806 C 211.387 110.491,207.325 110.278,207.633 110.544 M182.200 111.619 C 181.642 111.871,181.885 111.907,183.000 111.738 C 183.880 111.604,184.675 111.428,184.767 111.347 C 185.110 111.044,182.968 111.271,182.200 111.619 M215.233 111.347 C 215.325 111.428,216.120 111.604,217.000 111.738 C 218.115 111.907,218.358 111.871,217.800 111.619 C 217.032 111.271,214.890 111.044,215.233 111.347 M178.200 112.400 C 177.181 112.838,178.232 112.838,179.600 112.400 C 180.404 112.143,180.443 112.077,179.800 112.068 C 179.360 112.062,178.640 112.211,178.200 112.400 M220.400 112.400 C 221.768 112.838,222.819 112.838,221.800 112.400 C 221.360 112.211,220.640 112.062,220.200 112.068 C 219.557 112.077,219.596 112.143,220.400 112.400 M174.600 113.200 C 173.581 113.638,174.632 113.638,176.000 113.200 C 176.804 112.943,176.843 112.877,176.200 112.868 C 175.760 112.862,175.040 113.011,174.600 113.200 M223.233 112.944 C 223.325 113.023,223.940 113.208,224.600 113.356 C 225.476 113.552,225.638 113.515,225.200 113.218 C 224.660 112.853,222.832 112.598,223.233 112.944 M240.054 118.587 C 240.390 118.923,243.200 120.016,243.200 119.811 C 243.200 119.701,242.548 119.338,241.751 119.005 C 240.275 118.389,239.718 118.251,240.054 118.587 M246.800 121.779 C 246.800 121.889,247.340 122.259,248.000 122.600 C 248.660 122.941,249.200 123.131,249.200 123.021 C 249.200 122.911,248.660 122.541,248.000 122.200 C 247.340 121.859,246.800 121.669,246.800 121.779 M150.300 123.029 C 148.805 123.840,148.896 124.178,150.400 123.400 C 151.060 123.059,151.600 122.694,151.600 122.590 C 151.600 122.332,151.557 122.347,150.300 123.029 M250.000 123.620 C 251.387 124.561,252.178 124.835,251.200 124.036 C 250.650 123.586,250.020 123.217,249.800 123.215 C 249.580 123.213,249.670 123.396,250.000 123.620 M144.243 126.822 C 142.580 127.935,141.112 129.019,140.980 129.232 C 140.792 129.536,146.884 125.578,147.567 124.953 C 148.319 124.264,146.745 125.149,144.243 126.822 M138.785 130.829 L 137.400 132.058 138.900 130.981 C 140.226 130.030,140.657 129.600,140.285 129.600 C 140.222 129.600,139.547 130.153,138.785 130.829 M261.000 130.956 C 261.880 131.744,262.765 132.391,262.967 132.394 C 263.168 132.397,263.258 132.345,263.167 132.277 C 263.075 132.210,262.190 131.563,261.200 130.839 L 259.400 129.524 261.000 130.956 M134.800 134.040 L 132.600 136.070 134.900 134.187 C 136.919 132.533,137.468 131.988,137.100 132.004 C 137.045 132.007,136.010 132.923,134.800 134.040 M263.600 132.871 C 263.600 132.952,264.995 134.262,266.700 135.783 C 268.405 137.304,269.260 137.958,268.600 137.237 C 267.383 135.907,263.600 132.604,263.600 132.871 M148.000 134.600 C 148.000 134.930,148.180 135.200,148.400 135.200 C 148.620 135.200,148.800 134.930,148.800 134.600 C 148.800 134.270,148.620 134.000,148.400 134.000 C 148.180 134.000,148.000 134.270,148.000 134.600 M250.667 135.067 C 250.124 135.610,250.387 136.780,251.000 136.545 C 251.396 136.393,251.611 136.567,251.632 137.057 C 251.651 137.508,251.745 137.596,251.871 137.283 C 252.355 136.075,251.406 134.327,250.667 135.067 M148.880 136.600 C 148.880 137.040,149.024 137.850,149.200 138.400 C 149.454 139.192,149.520 139.233,149.520 138.600 C 149.520 138.160,149.376 137.350,149.200 136.800 C 148.946 136.008,148.880 135.967,148.880 136.600 M147.660 137.250 C 147.627 137.828,147.511 138.907,147.401 139.650 L 147.203 141.000 147.624 139.657 C 147.855 138.919,147.972 137.839,147.882 137.257 L 147.720 136.200 147.660 137.250 M249.833 140.833 C 249.683 141.966,249.641 142.974,249.739 143.072 C 249.837 143.171,250.045 142.328,250.200 141.200 C 250.355 140.072,250.398 139.064,250.294 138.961 C 250.191 138.858,249.984 139.700,249.833 140.833 M252.047 140.433 C 252.073 141.185,252.241 142.340,252.420 143.000 C 252.635 143.789,252.670 143.378,252.523 141.800 C 252.277 139.155,251.973 138.281,252.047 140.433 M149.693 141.800 C 149.694 142.460,149.832 143.540,150.000 144.200 C 150.423 145.863,150.442 144.226,150.023 142.200 C 149.745 140.855,149.692 140.791,149.693 141.800 M272.400 141.050 C 272.400 141.261,273.255 142.236,274.300 143.217 L 276.200 145.000 274.400 143.007 C 273.410 141.912,272.555 140.937,272.500 140.841 C 272.445 140.745,272.400 140.839,272.400 141.050 M146.800 143.826 C 146.800 144.391,146.610 145.246,146.378 145.726 C 145.970 146.570,145.977 146.574,146.578 145.824 C 147.147 145.113,147.470 142.800,147.000 142.800 C 146.890 142.800,146.800 143.262,146.800 143.826 M123.960 144.700 C 122.358 146.413,121.422 147.600,121.675 147.600 C 121.770 147.600,122.702 146.610,123.747 145.400 C 125.918 142.885,126.044 142.471,123.960 144.700 M249.200 145.236 C 249.200 145.476,248.795 146.026,248.300 146.460 L 247.400 147.247 248.500 146.578 C 249.431 146.011,250.044 144.800,249.400 144.800 C 249.290 144.800,249.200 144.996,249.200 145.236 M276.000 145.325 C 276.000 145.394,276.585 145.979,277.300 146.625 L 278.600 147.800 277.425 146.500 C 276.330 145.288,276.000 145.016,276.000 145.325 M150.767 146.145 C 151.300 146.801,152.800 147.793,152.800 147.489 C 152.800 147.413,152.215 146.922,151.500 146.399 C 150.696 145.810,150.416 145.713,150.767 146.145 M254.423 146.951 C 254.741 147.365,255.221 148.445,255.492 149.351 L 255.984 151.000 255.764 149.400 C 255.643 148.519,255.162 147.440,254.695 147.000 C 253.975 146.321,253.934 146.314,254.423 146.951 M279.140 149.116 C 279.633 149.809,280.244 150.504,280.497 150.660 C 280.750 150.817,280.554 150.377,280.060 149.684 C 279.567 148.991,278.956 148.296,278.703 148.140 C 278.450 147.983,278.646 148.423,279.140 149.116 M152.887 149.000 C 152.891 149.440,153.032 150.340,153.200 151.000 C 153.474 152.078,153.506 152.098,153.513 151.200 C 153.517 150.650,153.376 149.750,153.200 149.200 C 152.949 148.416,152.881 148.373,152.887 149.000 M119.144 150.700 C 117.993 152.089,117.506 152.800,117.704 152.800 C 117.814 152.800,118.386 152.170,118.973 151.400 C 120.063 149.971,120.195 149.432,119.144 150.700 M143.455 152.255 C 143.313 153.286,143.274 154.208,143.369 154.302 C 143.463 154.396,143.665 153.639,143.818 152.618 C 143.971 151.598,144.010 150.676,143.904 150.571 C 143.798 150.465,143.596 151.223,143.455 152.255 M245.846 153.446 C 245.700 154.693,245.659 155.793,245.757 155.890 C 245.854 155.988,246.061 155.054,246.215 153.815 C 246.370 152.577,246.410 151.477,246.305 151.371 C 246.199 151.266,245.993 152.199,245.846 153.446 M283.058 154.500 C 285.537 158.158,285.952 158.681,285.201 157.200 C 284.584 155.984,281.227 151.200,280.990 151.200 C 280.897 151.200,281.828 152.685,283.058 154.500 M256.040 153.033 C 256.062 153.675,256.233 154.650,256.420 155.200 C 256.649 155.874,256.684 155.549,256.528 154.200 C 256.269 151.950,255.979 151.259,256.040 153.033 M153.687 154.400 C 153.683 154.950,153.824 155.850,154.000 156.400 C 154.431 157.744,154.431 156.292,154.000 154.600 C 153.726 153.522,153.694 153.502,153.687 154.400 M142.708 158.100 C 142.421 160.883,142.249 160.809,148.743 160.717 L 154.600 160.634 148.800 160.417 L 143.000 160.200 143.136 158.300 C 143.305 155.942,142.949 155.775,142.708 158.100 M114.308 157.700 C 113.433 159.049,112.648 160.656,113.087 160.200 C 113.648 159.617,115.298 156.800,115.079 156.800 C 114.976 156.800,114.629 157.205,114.308 157.700 M245.352 159.000 L 245.400 160.600 251.200 160.600 L 257.000 160.600 257.042 159.097 L 257.084 157.593 256.918 158.997 L 256.752 160.400 251.200 160.400 L 245.648 160.400 245.476 158.900 L 245.305 157.400 245.352 159.000 M287.000 160.800 C 287.341 161.460,287.711 162.000,287.821 162.000 C 287.931 162.000,287.741 161.460,287.400 160.800 C 287.059 160.140,286.689 159.600,286.579 159.600 C 286.469 159.600,286.659 160.140,287.000 160.800 M111.814 161.835 C 111.441 162.404,111.205 162.938,111.289 163.022 C 111.373 163.107,111.758 162.641,112.144 161.988 C 113.006 160.528,112.748 160.409,111.814 161.835 M289.484 165.386 C 290.297 167.028,291.027 168.307,291.106 168.227 C 291.285 168.049,288.465 162.400,288.198 162.400 C 288.093 162.400,288.671 163.744,289.484 165.386 M138.673 163.460 C 138.327 163.806,138.393 168.260,138.791 171.400 C 139.032 173.300,139.085 172.759,139.048 168.800 L 139.000 163.800 148.687 163.693 L 158.374 163.586 158.507 168.194 L 158.640 172.801 158.620 168.101 L 158.600 163.400 148.773 163.293 C 143.369 163.234,138.824 163.309,138.673 163.460 M241.372 163.730 C 241.260 164.022,241.228 165.957,241.301 168.030 L 241.434 171.800 241.517 167.680 L 241.600 163.561 251.562 163.680 C 257.042 163.746,261.441 163.665,261.339 163.500 C 260.979 162.919,241.597 163.142,241.372 163.730 M261.082 169.161 C 260.920 171.449,260.864 173.397,260.956 173.489 C 261.203 173.736,261.705 167.150,261.528 165.991 C 261.445 165.446,261.244 166.872,261.082 169.161 M140.200 174.737 C 141.730 175.672,142.278 176.352,142.507 177.600 L 142.691 178.600 142.739 177.600 C 142.766 177.050,142.656 176.414,142.494 176.186 C 142.000 175.491,139.920 174.000,139.446 174.001 C 139.201 174.002,139.540 174.333,140.200 174.737 M155.900 175.246 C 154.863 176.020,154.804 176.230,154.878 178.933 L 154.957 181.800 155.098 179.000 C 155.223 176.531,155.368 176.095,156.320 175.314 C 157.680 174.199,157.371 174.149,155.900 175.246 M244.383 175.715 C 244.748 176.199,244.893 177.423,244.832 179.510 C 244.783 181.205,244.832 182.502,244.941 182.392 C 245.579 181.754,245.292 176.324,244.587 175.679 C 243.884 175.037,243.873 175.039,244.383 175.715 M257.528 182.801 C 257.458 184.781,257.535 186.401,257.700 186.401 C 257.865 186.400,258.000 184.780,258.000 182.800 C 258.000 178.148,257.694 178.148,257.528 182.801 M197.800 180.365 C 197.067 180.529,197.897 180.629,199.933 180.619 C 201.766 180.611,202.846 180.486,202.333 180.342 C 201.149 180.009,199.340 180.018,197.800 180.365 M296.056 181.600 C 296.056 181.930,296.211 182.560,296.400 183.000 C 296.617 183.504,296.744 183.578,296.744 183.200 C 296.744 182.870,296.589 182.240,296.400 181.800 C 296.183 181.296,296.056 181.222,296.056 181.600 M208.165 183.298 C 208.808 183.834,209.206 184.467,209.053 184.714 C 208.902 184.959,209.143 185.355,209.589 185.594 C 210.129 185.883,210.400 185.891,210.400 185.617 C 210.400 185.034,208.751 183.201,207.800 182.728 C 207.360 182.508,207.524 182.765,208.165 183.298 M190.551 184.100 C 189.313 185.512,188.683 186.400,188.917 186.400 C 189.036 186.400,189.703 185.680,190.400 184.800 C 191.755 183.089,191.859 182.607,190.551 184.100 M201.115 183.528 C 200.738 183.678,201.755 183.800,203.374 183.800 C 204.994 183.800,206.113 183.668,205.860 183.506 C 205.292 183.143,202.047 183.158,201.115 183.528 M198.400 184.600 C 197.850 184.914,197.580 185.172,197.800 185.172 C 198.020 185.172,198.650 184.914,199.200 184.600 C 199.750 184.286,200.020 184.028,199.800 184.028 C 199.580 184.028,198.950 184.286,198.400 184.600 M101.800 187.600 C 101.648 188.291,101.607 188.941,101.709 189.042 C 101.811 189.144,102.009 188.653,102.150 187.950 C 102.483 186.283,102.160 185.960,101.800 187.600 M194.865 188.217 C 194.195 189.688,194.323 190.002,195.047 188.665 C 195.386 188.040,195.588 187.454,195.496 187.363 C 195.405 187.271,195.121 187.656,194.865 188.217 M297.668 187.600 C 297.688 188.639,298.318 190.346,298.332 189.400 C 298.338 188.960,298.189 188.240,298.000 187.800 C 297.789 187.310,297.661 187.232,297.668 187.600 M142.900 189.499 C 146.145 189.566,151.455 189.566,154.700 189.499 C 157.945 189.432,155.290 189.377,148.800 189.377 C 142.310 189.377,139.655 189.432,142.900 189.499 M245.525 189.499 C 248.893 189.566,254.293 189.566,257.525 189.499 C 260.756 189.432,258.000 189.377,251.400 189.377 C 244.800 189.377,242.156 189.432,245.525 189.499 M136.000 196.930 C 136.000 204.483,136.365 206.000,138.180 206.000 C 138.360 206.000,138.026 205.621,137.437 205.158 L 136.366 204.316 136.483 196.957 C 136.547 192.910,136.465 189.599,136.300 189.600 C 136.135 189.600,136.000 192.899,136.000 196.930 M160.967 197.000 C 160.967 201.180,161.026 202.836,161.098 200.679 C 161.171 198.523,161.170 195.103,161.098 193.079 C 161.025 191.056,160.966 192.820,160.967 197.000 M238.890 196.825 L 238.800 204.250 240.100 205.425 L 241.400 206.600 240.309 205.388 L 239.219 204.176 239.100 196.788 L 238.981 189.400 238.890 196.825 M101.056 190.884 C 100.921 191.388,100.827 192.160,100.846 192.600 C 100.865 193.040,101.045 192.698,101.246 191.840 C 101.636 190.178,101.470 189.340,101.056 190.884 M193.849 190.615 C 193.712 190.973,193.618 191.656,193.641 192.133 C 193.667 192.681,193.803 192.486,194.010 191.603 C 194.360 190.116,194.265 189.533,193.849 190.615 M298.662 192.600 C 298.796 193.480,298.972 194.275,299.053 194.367 C 299.356 194.710,299.129 192.568,298.781 191.800 C 298.529 191.242,298.493 191.485,298.662 192.600 M186.914 193.400 C 186.917 194.500,186.995 194.903,187.087 194.295 C 187.179 193.686,187.177 192.786,187.082 192.295 C 186.987 191.803,186.911 192.300,186.914 193.400 M193.606 194.633 C 193.609 195.275,193.784 196.070,193.995 196.400 C 194.255 196.809,194.299 196.490,194.132 195.400 C 193.829 193.423,193.598 193.086,193.606 194.633 M100.256 195.284 C 100.121 195.788,100.030 196.740,100.053 197.400 C 100.081 198.228,100.197 197.984,100.426 196.613 C 100.776 194.523,100.674 193.726,100.256 195.284 M299.477 197.400 C 299.600 198.720,299.768 199.875,299.850 199.967 C 300.118 200.264,299.915 197.434,299.580 196.200 C 299.365 195.411,299.330 195.822,299.477 197.400 M188.016 198.520 C 187.986 199.120,189.146 201.057,189.874 201.622 C 190.560 202.155,190.564 202.142,189.950 201.393 C 189.593 200.957,189.015 200.060,188.666 199.400 C 188.317 198.740,188.025 198.344,188.016 198.520 M196.400 200.200 C 197.146 200.970,197.847 201.600,197.957 201.600 C 198.067 201.600,197.546 200.970,196.800 200.200 C 196.054 199.430,195.353 198.800,195.243 198.800 C 195.133 198.800,195.654 199.430,196.400 200.200 M99.459 202.100 C 99.141 204.748,99.209 219.004,99.547 220.571 C 99.686 221.215,99.800 216.850,99.800 210.871 C 99.800 204.892,99.780 200.000,99.756 200.000 C 99.731 200.000,99.598 200.945,99.459 202.100 M208.700 201.429 C 208.095 201.757,207.600 202.116,207.600 202.227 C 207.600 202.338,207.948 202.242,208.374 202.014 C 209.723 201.292,209.785 201.561,208.576 202.900 L 207.402 204.200 208.901 202.822 C 211.009 200.883,210.914 200.228,208.700 201.429 M200.400 202.782 C 200.730 203.005,201.345 203.191,201.767 203.194 C 202.790 203.202,202.471 202.973,201.000 202.644 C 200.124 202.448,199.962 202.485,200.400 202.782 M205.400 202.800 L 204.200 203.105 205.276 203.153 C 205.868 203.179,206.464 203.020,206.600 202.800 C 206.736 202.580,206.792 202.421,206.724 202.447 C 206.656 202.473,206.060 202.632,205.400 202.800 M300.200 210.800 C 300.200 215.530,300.319 218.500,300.465 217.400 C 300.611 216.300,300.730 213.330,300.730 210.800 C 300.730 208.270,300.611 205.300,300.465 204.200 C 300.319 203.100,300.200 206.070,300.200 210.800 M261.900 205.848 L 260.000 207.695 260.094 220.147 L 260.188 232.600 260.300 220.208 L 260.412 207.815 262.291 205.908 C 264.698 203.464,264.399 203.418,261.900 205.848 M196.600 205.981 C 197.368 206.329,199.510 206.556,199.167 206.253 C 199.075 206.172,198.280 205.996,197.400 205.862 C 196.285 205.693,196.042 205.729,196.600 205.981 M201.800 206.000 C 200.711 206.277,200.693 206.307,201.600 206.325 C 202.150 206.335,202.960 206.189,203.400 206.000 C 204.386 205.576,203.466 205.576,201.800 206.000 M139.092 206.832 C 139.442 207.281,139.618 210.177,139.700 216.832 L 139.815 226.200 139.908 216.749 C 139.992 208.158,139.936 207.248,139.300 206.749 C 138.682 206.264,138.658 206.274,139.092 206.832 M196.975 213.868 C 196.359 214.676,196.059 215.211,196.309 215.056 C 196.821 214.740,198.553 212.400,198.275 212.400 C 198.176 212.400,197.591 213.061,196.975 213.868 M203.200 214.925 C 203.200 214.994,203.785 215.579,204.500 216.225 L 205.800 217.400 204.625 216.100 C 203.530 214.888,203.200 214.616,203.200 214.925 M192.400 219.094 C 190.530 221.005,189.867 221.822,190.926 220.910 C 192.642 219.434,196.279 215.585,195.934 215.610 C 195.860 215.615,194.270 217.183,192.400 219.094 M207.000 219.200 C 207.859 220.080,208.652 220.800,208.762 220.800 C 208.872 220.800,208.259 220.080,207.400 219.200 C 206.541 218.320,205.748 217.600,205.638 217.600 C 205.528 217.600,206.141 218.320,207.000 219.200 M209.200 220.925 C 209.200 220.994,209.785 221.579,210.500 222.225 L 211.800 223.400 210.625 222.100 C 209.530 220.888,209.200 220.616,209.200 220.925 M299.664 222.650 C 299.629 223.338,299.511 224.507,299.401 225.250 L 299.203 226.600 299.624 225.258 C 299.855 224.520,299.973 223.350,299.886 222.658 L 299.728 221.400 299.664 222.650 M212.140 223.503 C 212.296 223.756,212.991 224.367,213.684 224.860 C 214.377 225.354,214.817 225.550,214.660 225.297 C 214.504 225.044,213.809 224.433,213.116 223.940 C 212.423 223.446,211.983 223.250,212.140 223.503 M100.040 225.033 C 100.062 225.675,100.233 226.650,100.420 227.200 C 100.649 227.874,100.684 227.549,100.528 226.200 C 100.269 223.950,99.979 223.259,100.040 225.033 M298.650 229.250 C 298.509 229.953,298.469 230.602,298.559 230.692 C 298.650 230.783,298.848 230.291,299.000 229.600 C 299.152 228.909,299.193 228.259,299.091 228.158 C 298.989 228.056,298.791 228.547,298.650 229.250 M100.868 229.800 C 100.862 230.240,101.011 230.960,101.200 231.400 C 101.638 232.419,101.638 231.368,101.200 230.000 C 100.943 229.196,100.877 229.157,100.868 229.800 M175.985 231.632 L 174.600 232.863 175.888 232.013 C 177.030 231.259,177.893 230.400,177.508 230.400 C 177.432 230.400,176.747 230.954,175.985 231.632 M222.433 230.930 C 222.525 231.001,223.230 231.466,224.000 231.963 L 225.400 232.866 224.200 231.835 C 223.540 231.268,222.835 230.803,222.633 230.802 C 222.432 230.801,222.342 230.858,222.433 230.930 M297.850 233.250 C 297.709 233.953,297.669 234.602,297.759 234.692 C 297.850 234.783,298.048 234.291,298.200 233.600 C 298.352 232.909,298.393 232.259,298.291 232.158 C 298.189 232.056,297.991 232.547,297.850 233.250 M171.264 235.787 C 168.819 238.361,166.357 242.071,166.419 243.087 C 166.430 243.259,166.975 242.360,167.632 241.088 C 168.288 239.817,170.102 237.432,171.663 235.788 C 173.224 234.145,174.412 232.800,174.302 232.800 C 174.192 232.800,172.825 234.144,171.264 235.787 M242.662 233.300 C 242.764 233.465,246.707 233.600,251.424 233.600 C 256.141 233.600,260.000 233.465,260.000 233.300 C 260.000 233.135,256.057 233.000,251.238 233.000 C 246.419 233.000,242.560 233.135,242.662 233.300 M101.656 233.600 C 101.656 233.930,101.811 234.560,102.000 235.000 C 102.217 235.504,102.344 235.578,102.344 235.200 C 102.344 234.870,102.189 234.240,102.000 233.800 C 101.783 233.296,101.656 233.222,101.656 233.600 M225.643 233.300 C 225.739 233.355,226.894 234.390,228.209 235.600 L 230.600 237.800 228.414 235.500 C 227.211 234.235,226.056 233.200,225.847 233.200 C 225.638 233.200,225.546 233.245,225.643 233.300 M297.029 236.629 C 296.881 237.215,296.838 237.772,296.932 237.866 C 297.027 237.960,297.224 237.558,297.371 236.971 C 297.519 236.385,297.562 235.828,297.468 235.734 C 297.373 235.640,297.176 236.042,297.029 236.629 M134.543 236.604 C 134.416 236.936,134.489 240.941,134.707 245.504 L 135.102 253.800 135.051 244.903 C 135.000 235.970,134.970 235.490,134.543 236.604 M162.398 240.518 L 162.596 245.000 162.712 240.835 C 162.777 238.544,162.688 236.527,162.515 236.353 C 162.342 236.179,162.289 238.053,162.398 240.518 M237.276 242.500 C 237.352 249.040,237.500 248.263,237.695 240.299 C 237.753 237.934,237.665 235.999,237.500 235.999 C 237.335 236.000,237.234 238.925,237.276 242.500 M264.937 244.722 L 264.875 253.400 265.209 245.000 C 265.393 240.380,265.422 236.475,265.272 236.322 C 265.122 236.169,264.972 239.949,264.937 244.722 M102.456 236.800 C 102.456 237.130,102.611 237.760,102.800 238.200 C 103.017 238.704,103.144 238.778,103.144 238.400 C 103.144 238.070,102.989 237.440,102.800 237.000 C 102.583 236.496,102.456 236.422,102.456 236.800 M232.695 242.004 C 233.041 242.887,233.397 243.536,233.486 243.448 C 233.678 243.255,232.523 240.400,232.253 240.400 C 232.149 240.400,232.348 241.122,232.695 242.004 M233.656 244.400 C 233.656 244.730,233.811 245.360,234.000 245.800 C 234.217 246.304,234.344 246.378,234.344 246.000 C 234.344 245.670,234.189 245.040,234.000 244.600 C 233.783 244.096,233.656 244.022,233.656 244.400 M165.135 249.500 C 165.059 250.765,165.101 252.610,165.228 253.600 C 165.384 254.810,165.476 254.056,165.511 251.300 C 165.567 246.835,165.357 245.829,165.135 249.500 M234.548 251.200 C 234.548 253.510,234.614 254.455,234.695 253.300 C 234.776 252.145,234.776 250.255,234.695 249.100 C 234.614 247.945,234.548 248.890,234.548 251.200 M108.800 254.143 C 108.800 254.578,111.587 260.000,111.810 260.000 C 111.920 260.000,111.357 258.695,110.558 257.100 C 109.060 254.107,108.800 253.670,108.800 254.143 M263.322 255.029 L 262.200 256.058 263.500 255.154 C 264.215 254.657,264.800 254.193,264.800 254.125 C 264.800 253.809,264.358 254.080,263.322 255.029 M158.785 256.361 C 158.023 257.000,157.490 257.595,157.600 257.683 C 157.710 257.772,158.430 257.251,159.200 256.526 C 160.930 254.895,160.661 254.788,158.785 256.361 M165.656 256.400 C 165.656 256.730,165.811 257.360,166.000 257.800 C 166.217 258.304,166.344 258.378,166.344 258.000 C 166.344 257.670,166.189 257.040,166.000 256.600 C 165.783 256.096,165.656 256.022,165.656 256.400 M233.829 257.029 C 233.681 257.615,233.638 258.172,233.732 258.266 C 233.827 258.360,234.024 257.958,234.171 257.371 C 234.319 256.785,234.362 256.228,234.268 256.134 C 234.173 256.040,233.976 256.442,233.829 257.029 M260.870 256.926 C 259.983 257.870,259.434 282.400,260.300 282.400 C 260.465 282.400,260.550 276.882,260.489 270.138 C 260.378 257.976,260.384 257.868,261.258 256.938 C 261.743 256.422,262.049 256.000,261.939 256.000 C 261.829 256.000,261.348 256.417,260.870 256.926 M139.178 257.474 C 139.748 258.653,139.759 281.855,139.190 282.137 C 138.965 282.249,139.010 282.294,139.290 282.237 C 140.138 282.065,140.227 258.438,139.384 257.384 C 138.774 256.622,138.768 256.625,139.178 257.474 M287.000 261.200 C 286.659 261.860,286.469 262.400,286.579 262.400 C 286.689 262.400,287.059 261.860,287.400 261.200 C 287.741 260.540,287.931 260.000,287.821 260.000 C 287.711 260.000,287.341 260.540,287.000 261.200 M112.600 261.600 C 112.941 262.260,113.311 262.800,113.421 262.800 C 113.531 262.800,113.341 262.260,113.000 261.600 C 112.659 260.940,112.289 260.400,112.179 260.400 C 112.069 260.400,112.259 260.940,112.600 261.600 M167.200 260.953 C 167.200 261.382,168.390 263.600,168.621 263.600 C 168.731 263.600,168.523 263.015,168.159 262.300 C 167.417 260.840,167.200 260.536,167.200 260.953 M231.978 261.898 C 231.074 263.701,231.087 263.879,232.020 262.483 C 232.504 261.759,232.817 261.083,232.715 260.982 C 232.613 260.880,232.281 261.292,231.978 261.898 M169.540 265.116 C 170.033 265.809,170.644 266.504,170.897 266.660 C 171.150 266.817,170.954 266.377,170.460 265.684 C 169.967 264.991,169.356 264.296,169.103 264.140 C 168.850 263.983,169.046 264.423,169.540 265.116 M229.448 265.767 C 228.652 266.739,228.000 267.646,228.000 267.781 C 228.000 268.010,229.500 266.334,230.759 264.700 C 231.909 263.207,230.819 264.095,229.448 265.767 M283.656 266.560 C 282.745 267.968,282.000 269.253,282.000 269.416 C 282.000 269.729,283.212 267.999,284.745 265.500 C 286.286 262.988,285.422 263.828,283.656 266.560 M114.762 265.104 C 115.485 266.494,117.598 269.552,118.012 269.808 C 118.216 269.933,117.564 268.816,116.563 267.324 C 114.593 264.386,114.022 263.682,114.762 265.104 M166.400 268.316 C 166.400 268.506,166.836 269.070,167.368 269.570 C 167.900 270.070,168.554 271.007,168.822 271.652 C 169.089 272.298,169.388 272.745,169.486 272.647 C 169.584 272.549,169.444 272.048,169.174 271.534 C 168.554 270.355,166.400 267.856,166.400 268.316 M232.939 268.272 C 233.089 268.422,232.714 269.097,232.106 269.772 L 231.000 271.000 232.300 269.825 C 233.654 268.602,233.928 268.000,233.133 268.000 C 232.877 268.000,232.789 268.123,232.939 268.272 M119.644 272.200 C 120.638 273.681,122.000 275.264,121.994 274.931 C 121.991 274.749,121.340 273.880,120.548 273.000 C 119.756 272.120,119.349 271.760,119.644 272.200 M278.420 273.900 C 277.058 275.550,276.984 276.516,278.205 276.731 C 278.998 276.872,278.998 276.871,278.204 276.271 C 277.423 275.682,277.433 275.641,278.723 274.036 C 279.446 273.136,279.952 272.400,279.848 272.400 C 279.744 272.400,279.101 273.075,278.420 273.900 M229.780 274.567 C 229.639 275.319,229.676 276.206,229.862 276.537 C 230.084 276.934,230.210 276.466,230.229 275.170 C 230.264 272.855,230.134 272.681,229.780 274.567 M169.709 275.200 C 169.709 276.190,169.787 276.595,169.882 276.100 C 169.978 275.605,169.978 274.795,169.882 274.300 C 169.787 273.805,169.709 274.210,169.709 275.200 M168.998 277.822 C 168.779 278.163,167.700 278.592,166.600 278.775 C 165.135 279.017,164.932 279.118,165.840 279.153 C 167.523 279.217,169.600 278.448,169.600 277.761 C 169.600 277.044,169.489 277.055,168.998 277.822 M230.631 278.387 C 230.867 278.626,232.037 278.900,233.231 278.997 L 235.400 279.173 233.460 278.814 C 232.393 278.616,231.223 278.342,230.860 278.204 C 230.387 278.024,230.322 278.076,230.631 278.387 M113.800 278.800 C 113.296 279.017,113.222 279.144,113.600 279.144 C 113.930 279.144,114.560 278.989,115.000 278.800 C 115.504 278.583,115.578 278.456,115.200 278.456 C 114.870 278.456,114.240 278.611,113.800 278.800 M159.600 279.600 C 158.250 279.884,158.243 279.895,159.400 279.900 C 160.060 279.903,161.140 279.768,161.800 279.600 C 163.460 279.178,161.607 279.178,159.600 279.600 M237.800 279.580 C 239.034 279.915,241.864 280.118,241.567 279.850 C 241.475 279.768,240.320 279.600,239.000 279.477 C 237.422 279.330,237.011 279.365,237.800 279.580 M287.400 279.600 C 287.840 279.789,288.470 279.944,288.800 279.944 C 289.178 279.944,289.104 279.817,288.600 279.600 C 288.160 279.411,287.530 279.256,287.200 279.256 C 286.822 279.256,286.896 279.383,287.400 279.600 M103.400 282.000 C 102.896 282.217,102.822 282.344,103.200 282.344 C 103.530 282.344,104.160 282.189,104.600 282.000 C 105.104 281.783,105.178 281.656,104.800 281.656 C 104.470 281.656,103.840 281.811,103.400 282.000 M134.400 282.800 L 132.600 283.080 134.200 283.100 C 135.080 283.111,136.250 282.976,136.800 282.800 C 138.063 282.395,137.002 282.395,134.400 282.800 M264.200 282.806 C 265.801 283.154,269.081 283.331,268.767 283.052 C 268.675 282.971,267.250 282.804,265.600 282.681 C 263.376 282.516,263.014 282.548,264.200 282.806 M127.800 283.600 L 126.200 283.886 127.600 283.896 C 128.370 283.901,129.540 283.768,130.200 283.600 C 131.828 283.186,130.113 283.186,127.800 283.600 M272.200 283.589 C 273.416 283.909,277.073 284.122,276.767 283.855 C 276.675 283.775,275.340 283.611,273.800 283.491 C 272.102 283.359,271.472 283.398,272.200 283.589 M121.400 284.400 L 119.800 284.686 121.200 284.696 C 121.970 284.701,123.140 284.568,123.800 284.400 C 125.428 283.986,123.713 283.986,121.400 284.400 M279.400 284.380 C 280.634 284.715,283.464 284.918,283.167 284.650 C 283.075 284.568,281.920 284.400,280.600 284.277 C 279.022 284.130,278.611 284.165,279.400 284.380 M115.000 285.200 L 113.400 285.486 114.800 285.496 C 115.570 285.501,116.740 285.368,117.400 285.200 C 119.028 284.786,117.313 284.786,115.000 285.200 M285.800 285.180 C 287.034 285.515,289.864 285.718,289.567 285.450 C 289.475 285.368,288.320 285.200,287.000 285.077 C 285.422 284.930,285.011 284.965,285.800 285.180 M305.800 285.200 C 306.240 285.389,306.870 285.544,307.200 285.544 C 307.578 285.544,307.504 285.417,307.000 285.200 C 306.560 285.011,305.930 284.856,305.600 284.856 C 305.222 284.856,305.296 284.983,305.800 285.200 M108.600 286.000 L 107.000 286.286 108.400 286.296 C 109.170 286.301,110.340 286.168,111.000 286.000 C 112.628 285.586,110.913 285.586,108.600 286.000 M292.000 285.980 C 292.999 286.320,295.482 286.532,295.167 286.251 C 295.075 286.169,294.100 285.999,293.000 285.872 C 291.651 285.716,291.326 285.751,292.000 285.980 M102.200 286.800 L 100.600 287.086 102.000 287.096 C 102.770 287.101,103.940 286.968,104.600 286.800 C 106.228 286.386,104.513 286.386,102.200 286.800 M297.800 286.800 C 298.460 286.968,299.450 287.105,300.000 287.105 C 300.892 287.105,300.870 287.072,299.800 286.800 C 299.140 286.632,298.150 286.495,297.600 286.495 C 296.708 286.495,296.730 286.528,297.800 286.800 M95.800 287.600 L 94.200 287.886 95.600 287.896 C 96.370 287.901,97.540 287.768,98.200 287.600 C 99.828 287.186,98.113 287.186,95.800 287.600 M303.400 287.600 C 304.060 287.768,305.140 287.906,305.800 287.907 C 306.809 287.908,306.745 287.855,305.400 287.577 C 303.374 287.158,301.737 287.177,303.400 287.600 M82.400 288.400 C 81.867 288.745,81.867 288.788,82.400 288.788 C 82.730 288.788,83.270 288.613,83.600 288.400 C 84.133 288.055,84.133 288.012,83.600 288.012 C 83.270 288.012,82.730 288.187,82.400 288.400 M89.400 288.400 L 87.800 288.686 89.200 288.696 C 89.970 288.701,91.140 288.568,91.800 288.400 C 93.428 287.986,91.713 287.986,89.400 288.400 M309.400 288.400 C 310.060 288.568,311.140 288.706,311.800 288.707 C 312.809 288.708,312.745 288.655,311.400 288.377 C 309.374 287.958,307.737 287.977,309.400 288.400 M316.100 288.276 C 317.299 288.589,316.867 289.068,315.500 288.940 C 314.315 288.830,314.289 288.851,315.200 289.170 C 316.679 289.688,320.105 289.693,319.786 289.177 C 319.635 288.932,318.990 288.858,318.262 289.001 C 317.437 289.163,317.185 289.121,317.534 288.880 C 318.057 288.518,316.855 287.944,315.800 288.052 C 315.580 288.074,315.715 288.175,316.100 288.276 M83.000 289.200 L 81.400 289.486 82.800 289.496 C 83.570 289.501,84.740 289.368,85.400 289.200 C 87.028 288.786,85.313 288.786,83.000 289.200 " stroke="none" fill="#7ca49c" fill-rule="evenodd"></path><path id="path4" d="M192.200 109.973 C 190.440 110.098,193.950 110.200,200.000 110.200 C 206.741 110.200,209.606 110.100,207.400 109.942 C 203.180 109.640,196.716 109.654,192.200 109.973 M184.600 110.800 L 183.000 111.086 184.400 111.096 C 185.170 111.101,186.340 110.968,187.000 110.800 C 188.628 110.386,186.913 110.386,184.600 110.800 M213.000 110.780 C 214.234 111.115,217.064 111.318,216.767 111.050 C 216.675 110.968,215.520 110.800,214.200 110.677 C 212.622 110.530,212.211 110.565,213.000 110.780 M179.800 111.600 C 178.722 111.874,178.702 111.906,179.600 111.913 C 180.150 111.917,181.050 111.776,181.600 111.600 C 182.944 111.169,181.492 111.169,179.800 111.600 M218.200 111.581 C 218.968 111.929,221.110 112.156,220.767 111.853 C 220.675 111.772,219.880 111.596,219.000 111.462 C 217.885 111.293,217.642 111.329,218.200 111.581 M176.400 112.400 C 175.596 112.657,175.557 112.723,176.200 112.732 C 176.640 112.738,177.360 112.589,177.800 112.400 C 178.819 111.962,177.768 111.962,176.400 112.400 M222.200 112.400 C 222.640 112.589,223.360 112.738,223.800 112.732 C 224.443 112.723,224.404 112.657,223.600 112.400 C 222.232 111.962,221.181 111.962,222.200 112.400 M173.200 113.200 C 172.376 113.464,172.341 113.526,173.000 113.554 C 173.440 113.573,174.070 113.413,174.400 113.200 C 175.101 112.747,174.614 112.747,173.200 113.200 M170.400 114.000 C 169.576 114.264,169.541 114.326,170.200 114.354 C 170.640 114.373,171.270 114.213,171.600 114.000 C 172.301 113.547,171.814 113.547,170.400 114.000 M162.682 116.668 C 160.748 117.455,159.231 118.164,159.312 118.246 C 159.455 118.388,166.425 115.690,166.767 115.361 C 167.199 114.944,165.906 115.358,162.682 116.668 M247.600 121.779 C 247.600 121.889,248.140 122.259,248.800 122.600 C 249.460 122.941,250.000 123.131,250.000 123.021 C 250.000 122.911,249.460 122.541,248.800 122.200 C 248.140 121.859,247.600 121.669,247.600 121.779 M149.500 123.029 C 148.005 123.840,148.096 124.178,149.600 123.400 C 150.260 123.059,150.800 122.694,150.800 122.590 C 150.800 122.332,150.757 122.347,149.500 123.029 M144.496 126.207 C 142.683 127.421,141.200 128.506,141.200 128.619 C 141.200 128.818,147.014 125.042,147.780 124.345 C 148.698 123.511,147.557 124.158,144.496 126.207 M254.400 125.721 C 254.400 125.812,255.435 126.551,256.700 127.363 C 257.965 128.175,258.508 128.421,257.906 127.910 C 256.718 126.900,254.400 125.453,254.400 125.721 M259.344 129.109 C 259.660 129.621,262.000 131.353,262.000 131.075 C 262.000 130.976,261.339 130.391,260.532 129.775 C 259.724 129.159,259.189 128.859,259.344 129.109 M136.700 131.832 C 135.215 133.047,134.000 134.130,134.000 134.238 C 134.000 134.346,135.260 133.416,136.800 132.172 C 139.234 130.206,139.907 129.567,139.500 129.611 C 139.445 129.617,138.185 130.616,136.700 131.832 M263.446 132.468 C 264.081 132.945,265.061 133.710,265.625 134.168 C 266.189 134.626,265.834 134.235,264.836 133.300 C 263.838 132.365,262.858 131.600,262.657 131.600 C 262.456 131.600,262.811 131.991,263.446 132.468 M128.613 139.187 C 126.208 141.599,124.321 143.624,124.420 143.687 C 124.519 143.749,126.603 141.775,129.051 139.300 C 131.498 136.825,133.385 134.800,133.244 134.800 C 133.102 134.800,131.018 136.774,128.613 139.187 M148.040 137.300 C 148.074 138.744,148.128 138.850,148.400 138.000 C 148.861 136.561,148.861 135.600,148.400 135.600 C 148.180 135.600,148.018 136.365,148.040 137.300 M270.934 139.313 C 272.950 141.356,274.681 142.970,274.779 142.901 C 275.002 142.744,267.920 135.600,267.542 135.600 C 267.391 135.600,268.918 137.271,270.934 139.313 M250.601 138.053 C 250.452 138.846,250.412 139.924,250.511 140.448 C 250.634 141.101,250.708 140.929,250.746 139.900 C 250.775 139.075,250.969 138.400,251.176 138.400 C 251.383 138.400,251.622 139.075,251.709 139.900 L 251.866 141.400 251.933 139.776 C 252.031 137.416,250.977 136.052,250.601 138.053 M148.869 138.800 C 148.856 139.350,148.995 140.520,149.177 141.400 C 149.389 142.426,149.516 142.641,149.531 142.000 C 149.544 141.450,149.405 140.280,149.223 139.400 C 149.011 138.374,148.884 138.159,148.869 138.800 M147.387 142.187 C 147.231 143.644,147.189 144.923,147.295 145.028 C 147.401 145.134,147.610 144.023,147.760 142.560 C 147.910 141.097,147.951 139.818,147.852 139.718 C 147.752 139.619,147.543 140.729,147.387 142.187 M252.227 144.000 C 252.402 145.588,255.200 149.448,255.200 148.100 C 255.200 147.908,254.681 147.367,254.047 146.898 C 253.236 146.299,252.767 145.477,252.462 144.123 L 252.028 142.200 252.227 144.000 M276.232 144.775 C 276.690 145.339,277.455 146.319,277.932 146.954 C 278.409 147.589,278.800 147.944,278.800 147.743 C 278.800 147.542,278.035 146.562,277.100 145.564 C 276.165 144.566,275.774 144.211,276.232 144.775 M149.634 144.720 C 149.613 145.283,150.133 146.138,150.971 146.920 C 151.725 147.624,152.421 148.650,152.517 149.200 L 152.691 150.200 152.746 149.136 C 152.783 148.396,152.423 147.754,151.564 147.031 C 150.885 146.459,150.180 145.498,149.999 144.896 C 149.698 143.897,149.666 143.881,149.634 144.720 M122.034 146.300 C 121.138 147.345,120.404 148.359,120.403 148.554 C 120.401 148.749,120.791 148.389,121.268 147.754 C 121.745 147.119,122.589 146.105,123.143 145.500 C 123.697 144.895,124.040 144.400,123.906 144.400 C 123.772 144.400,122.929 145.255,122.034 146.300 M145.896 146.597 C 144.552 147.780,143.984 149.173,144.050 151.126 C 144.092 152.377,144.147 152.276,144.411 150.459 C 144.649 148.826,145.035 147.996,146.040 146.959 C 147.568 145.382,147.493 145.192,145.896 146.597 M248.200 147.035 L 247.000 148.066 248.300 147.206 C 249.015 146.733,249.600 146.268,249.600 146.173 C 249.600 145.873,249.431 145.978,248.200 147.035 M280.175 149.732 C 280.791 150.539,281.376 151.200,281.475 151.200 C 281.753 151.200,280.021 148.860,279.509 148.544 C 279.259 148.389,279.559 148.924,280.175 149.732 M118.208 151.242 C 117.401 152.365,116.932 153.165,117.166 153.021 C 117.652 152.720,120.132 149.200,119.857 149.200 C 119.757 149.200,119.015 150.119,118.208 151.242 M255.270 150.200 C 255.257 150.640,255.395 151.720,255.577 152.600 C 255.855 153.945,255.908 154.009,255.907 153.000 C 255.905 151.599,255.308 148.970,255.270 150.200 M153.077 152.600 C 153.200 153.920,153.368 155.075,153.450 155.167 C 153.718 155.464,153.515 152.634,153.180 151.400 C 152.965 150.611,152.930 151.022,153.077 152.600 M246.493 152.000 C 246.493 152.770,246.575 153.085,246.676 152.700 C 246.776 152.315,246.776 151.685,246.676 151.300 C 246.575 150.915,246.493 151.230,246.493 152.000 M283.642 154.700 C 285.596 157.631,286.946 159.380,286.188 158.000 C 285.458 156.671,281.962 151.600,281.776 151.600 C 281.666 151.600,282.506 152.995,283.642 154.700 M143.472 155.004 C 143.327 155.882,143.229 157.140,143.253 157.800 C 143.278 158.460,143.455 157.920,143.648 156.600 C 144.040 153.915,143.885 152.507,143.472 155.004 M256.289 157.500 L 256.503 160.000 251.276 160.000 L 246.048 160.000 245.888 158.700 C 245.729 157.405,245.729 157.405,245.764 158.800 L 245.800 160.200 251.108 160.312 C 257.205 160.440,257.167 160.463,256.489 157.076 L 256.074 155.000 256.289 157.500 M153.858 157.922 L 154.081 160.044 148.678 159.922 C 145.706 159.855,143.358 159.935,143.461 160.100 C 143.563 160.265,145.982 160.400,148.836 160.400 C 154.688 160.400,154.725 160.380,154.047 157.533 L 153.635 155.800 153.858 157.922 M113.624 158.118 C 113.323 158.603,112.815 159.405,112.493 159.900 C 112.171 160.395,111.995 160.800,112.101 160.800 C 112.383 160.800,114.486 157.553,114.315 157.381 C 114.235 157.302,113.924 157.633,113.624 158.118 M287.000 160.000 C 287.341 160.660,287.711 161.200,287.821 161.200 C 287.931 161.200,287.741 160.660,287.400 160.000 C 287.059 159.340,286.689 158.800,286.579 158.800 C 286.469 158.800,286.659 159.340,287.000 160.000 M288.600 162.800 C 288.941 163.460,289.311 164.000,289.421 164.000 C 289.531 164.000,289.341 163.460,289.000 162.800 C 288.659 162.140,288.289 161.600,288.179 161.600 C 288.069 161.600,288.259 162.140,288.600 162.800 M139.300 163.865 C 138.965 164.000,138.822 164.880,138.867 166.533 L 138.934 169.000 139.167 166.600 L 139.400 164.200 148.862 164.200 C 154.066 164.200,158.241 164.065,158.138 163.900 C 157.935 163.571,140.109 163.538,139.300 163.865 M241.866 163.893 C 241.761 164.062,245.971 164.149,251.221 164.086 L 260.766 163.972 260.908 166.886 L 261.050 169.800 261.025 166.800 L 261.000 163.800 251.528 163.693 C 246.318 163.634,241.970 163.724,241.866 163.893 M241.740 169.200 C 241.740 171.070,241.809 171.835,241.893 170.900 C 241.977 169.965,241.977 168.435,241.893 167.500 C 241.809 166.565,241.740 167.330,241.740 169.200 M158.080 169.852 L 158.000 173.104 156.200 174.579 L 154.400 176.054 154.479 179.127 L 154.559 182.200 154.690 179.200 C 154.821 176.201,154.822 176.199,156.634 174.600 L 158.446 173.000 158.304 169.800 L 158.161 166.600 158.080 169.852 M141.700 175.211 C 142.511 175.842,142.817 176.453,142.864 177.533 L 142.928 179.000 143.091 177.674 C 143.265 176.260,142.778 175.403,141.433 174.756 C 140.912 174.506,141.012 174.676,141.700 175.211 M257.944 175.166 C 257.425 175.587,257.090 176.001,257.200 176.087 C 257.310 176.173,257.834 175.829,258.363 175.322 C 259.530 174.206,259.255 174.103,257.944 175.166 M245.331 180.200 C 245.333 181.740,245.405 182.321,245.492 181.491 C 245.579 180.661,245.577 179.401,245.489 178.691 C 245.400 177.981,245.329 178.660,245.331 180.200 M257.348 182.000 C 257.348 184.310,257.414 185.255,257.495 184.100 C 257.576 182.945,257.576 181.055,257.495 179.900 C 257.414 178.745,257.348 179.690,257.348 182.000 M196.000 181.218 C 195.562 181.515,195.724 181.552,196.600 181.356 C 198.071 181.027,198.390 180.798,197.367 180.806 C 196.945 180.809,196.330 180.995,196.000 181.218 M202.033 180.944 C 202.125 181.023,202.740 181.208,203.400 181.356 C 204.276 181.552,204.438 181.515,204.000 181.218 C 203.460 180.853,201.632 180.598,202.033 180.944 M205.756 182.258 C 206.556 182.691,206.759 182.978,206.417 183.189 C 206.004 183.445,207.823 184.400,208.722 184.400 C 209.171 184.400,207.329 182.681,206.321 182.159 C 204.835 181.391,204.321 181.481,205.756 182.258 M102.629 183.029 C 102.481 183.615,102.438 184.172,102.532 184.266 C 102.627 184.360,102.824 183.958,102.971 183.371 C 103.119 182.785,103.162 182.228,103.068 182.134 C 102.973 182.040,102.776 182.442,102.629 183.029 M191.183 184.300 L 189.400 186.200 191.393 184.400 C 192.488 183.410,193.463 182.555,193.559 182.500 C 193.655 182.445,193.561 182.400,193.350 182.400 C 193.139 182.400,192.164 183.255,191.183 184.300 M296.806 183.033 C 296.809 183.455,296.995 184.070,297.218 184.400 C 297.515 184.838,297.552 184.676,297.356 183.800 C 297.027 182.329,296.798 182.010,296.806 183.033 M142.509 184.400 C 142.509 185.390,142.587 185.795,142.682 185.300 C 142.778 184.805,142.778 183.995,142.682 183.500 C 142.587 183.005,142.509 183.410,142.509 184.400 M202.700 183.082 C 203.195 183.178,204.005 183.178,204.500 183.082 C 204.995 182.987,204.590 182.909,203.600 182.909 C 202.610 182.909,202.205 182.987,202.700 183.082 M195.847 186.401 C 195.051 187.282,194.400 188.128,194.400 188.281 C 194.400 188.435,194.535 188.389,194.701 188.180 C 194.867 187.971,195.622 187.125,196.380 186.300 C 197.137 185.475,197.653 184.800,197.525 184.800 C 197.397 184.800,196.642 185.521,195.847 186.401 M101.050 189.250 C 100.717 190.917,101.040 191.240,101.400 189.600 C 101.552 188.909,101.593 188.259,101.491 188.158 C 101.389 188.056,101.191 188.547,101.050 189.250 M298.480 189.400 C 298.480 189.840,298.624 190.650,298.800 191.200 C 299.054 191.992,299.120 192.033,299.120 191.400 C 299.120 190.960,298.976 190.150,298.800 189.600 C 298.546 188.808,298.480 188.767,298.480 189.400 M136.667 189.867 C 136.520 190.013,136.400 193.253,136.400 197.065 L 136.400 203.997 138.195 205.699 L 139.991 207.400 140.103 217.200 L 140.215 227.000 140.307 217.183 L 140.400 207.367 138.600 205.600 L 136.800 203.833 136.800 196.943 L 136.800 190.053 137.900 189.887 L 139.000 189.720 137.967 189.660 C 137.398 189.627,136.813 189.720,136.667 189.867 M187.452 190.500 C 187.135 191.683,187.183 195.216,187.528 196.085 C 187.678 196.462,187.800 195.157,187.800 193.185 C 187.800 189.235,187.797 189.213,187.452 190.500 M261.700 189.876 C 262.085 189.976,262.715 189.976,263.100 189.876 C 263.485 189.775,263.170 189.693,262.400 189.693 C 261.630 189.693,261.315 189.775,261.700 189.876 M193.328 193.200 C 193.328 194.630,193.401 195.215,193.489 194.500 C 193.578 193.785,193.578 192.615,193.489 191.900 C 193.401 191.185,193.328 191.770,193.328 193.200 M100.454 192.400 C 100.419 192.950,100.296 193.850,100.183 194.400 L 99.977 195.400 100.407 194.415 C 100.643 193.874,100.765 192.974,100.678 192.415 L 100.520 191.400 100.454 192.400 M299.293 193.400 C 299.294 194.060,299.432 195.140,299.600 195.800 C 300.023 197.463,300.042 195.826,299.623 193.800 C 299.345 192.455,299.292 192.391,299.293 193.400 M99.425 199.225 C 99.270 200.794,99.227 202.161,99.329 202.262 C 99.431 202.364,99.643 201.166,99.800 199.600 C 99.957 198.034,100.000 196.667,99.896 196.563 C 99.792 196.458,99.580 197.656,99.425 199.225 M300.109 199.600 C 300.109 200.590,300.187 200.995,300.282 200.500 C 300.378 200.005,300.378 199.195,300.282 198.700 C 300.187 198.205,300.109 198.610,300.109 199.600 M195.149 199.504 C 195.559 200.271,196.650 201.292,197.600 201.798 C 197.930 201.974,197.488 201.371,196.619 200.459 C 194.883 198.638,194.580 198.441,195.149 199.504 M188.800 199.401 C 188.800 199.983,191.643 203.196,192.527 203.612 C 193.319 203.985,193.313 203.959,192.462 203.337 C 191.945 202.960,190.910 201.849,190.162 200.868 C 189.413 199.887,188.800 199.227,188.800 199.401 M207.400 202.586 C 206.740 202.888,206.436 203.150,206.724 203.168 C 207.025 203.186,207.122 203.403,206.951 203.679 C 206.789 203.942,207.228 203.750,207.928 203.251 C 209.823 201.902,209.576 201.589,207.400 202.586 M300.509 203.600 C 300.509 204.590,300.587 204.995,300.682 204.500 C 300.778 204.005,300.778 203.195,300.682 202.700 C 300.587 202.205,300.509 202.610,300.509 203.600 M201.891 203.489 C 202.601 203.577,203.861 203.579,204.691 203.492 C 205.521 203.405,204.940 203.333,203.400 203.331 C 201.860 203.329,201.181 203.400,201.891 203.489 M158.900 205.469 C 157.965 206.400,157.214 207.486,157.232 207.881 C 157.256 208.437,157.312 208.464,157.480 208.000 C 157.599 207.670,158.428 206.639,159.323 205.708 C 161.459 203.487,161.096 203.282,158.900 205.469 M239.200 203.830 C 239.200 203.980,240.010 204.858,241.000 205.780 C 241.990 206.702,242.800 207.338,242.800 207.193 C 242.800 207.048,241.990 206.171,241.000 205.243 C 240.010 204.315,239.200 203.679,239.200 203.830 M193.600 204.176 C 193.600 204.543,195.944 205.601,196.680 205.566 C 197.159 205.543,197.057 205.427,196.377 205.221 C 195.814 205.050,194.959 204.699,194.477 204.441 C 193.994 204.183,193.600 204.064,193.600 204.176 M98.965 211.200 C 98.965 215.050,99.025 216.625,99.098 214.700 C 99.171 212.775,99.171 209.625,99.098 207.700 C 99.025 205.775,98.965 207.350,98.965 211.200 M260.770 206.288 C 260.058 207.086,260.013 207.219,260.598 206.788 C 261.872 205.850,262.486 205.200,262.098 205.200 C 261.901 205.200,261.303 205.690,260.770 206.288 M198.700 205.889 C 199.415 205.978,200.585 205.978,201.300 205.889 C 202.015 205.801,201.430 205.728,200.000 205.728 C 198.570 205.728,197.985 205.801,198.700 205.889 M195.567 216.208 C 194.158 217.862,191.865 220.202,190.470 221.408 C 189.075 222.614,188.095 223.600,188.292 223.600 C 188.929 223.600,194.544 218.183,196.527 215.656 C 199.178 212.276,198.661 212.573,195.567 216.208 M259.692 222.915 L 259.600 232.831 251.238 232.715 C 246.638 232.652,242.959 232.735,243.061 232.900 C 243.408 233.460,259.602 233.259,259.820 232.692 C 259.927 232.413,259.963 227.868,259.900 222.592 L 259.785 213.000 259.692 222.915 M203.585 215.794 C 204.673 217.294,208.590 221.254,210.200 222.482 C 211.082 223.155,210.773 222.772,209.511 221.628 C 208.252 220.487,206.272 218.526,205.111 217.270 C 203.950 216.015,203.263 215.350,203.585 215.794 M300.514 218.600 C 300.517 219.700,300.595 220.103,300.687 219.495 C 300.779 218.886,300.777 217.986,300.682 217.495 C 300.587 217.003,300.511 217.500,300.514 218.600 M99.285 221.000 C 99.277 221.660,99.410 223.100,99.582 224.200 C 99.836 225.835,99.897 225.945,99.917 224.800 C 99.930 224.030,99.797 222.590,99.620 221.600 C 99.388 220.291,99.296 220.128,99.285 221.000 M300.109 222.800 C 300.109 223.790,300.187 224.195,300.282 223.700 C 300.378 223.205,300.378 222.395,300.282 221.900 C 300.187 221.405,300.109 221.810,300.109 222.800 M185.500 225.414 C 184.455 226.180,183.600 226.896,183.600 227.003 C 183.600 227.111,184.500 226.552,185.600 225.762 C 187.309 224.534,187.923 223.968,187.500 224.010 C 187.445 224.015,186.545 224.647,185.500 225.414 M212.400 224.125 C 212.400 224.224,213.061 224.809,213.868 225.425 C 214.676 226.041,215.211 226.341,215.056 226.091 C 214.740 225.579,212.400 223.847,212.400 224.125 M299.469 226.356 C 299.321 227.095,299.220 228.082,299.244 228.550 C 299.268 229.018,299.447 228.590,299.642 227.600 C 299.837 226.610,299.938 225.623,299.867 225.406 C 299.796 225.190,299.617 225.617,299.469 226.356 M100.087 227.400 C 100.091 227.840,100.232 228.740,100.400 229.400 C 100.674 230.478,100.706 230.498,100.713 229.600 C 100.717 229.050,100.576 228.150,100.400 227.600 C 100.149 226.816,100.081 226.773,100.087 227.400 M177.104 231.234 C 175.841 232.111,173.771 233.832,172.504 235.060 L 170.200 237.291 172.562 235.218 C 173.861 234.078,175.976 232.431,177.262 231.558 C 178.548 230.685,179.600 229.887,179.600 229.785 C 179.600 229.505,179.568 229.524,177.104 231.234 M220.400 229.724 C 220.400 229.958,225.944 234.000,226.266 234.000 C 226.403 234.000,225.724 233.405,224.758 232.679 C 222.077 230.664,220.400 229.526,220.400 229.724 M298.656 230.884 C 298.521 231.388,298.427 232.160,298.446 232.600 C 298.465 233.040,298.645 232.698,298.846 231.840 C 299.236 230.178,299.070 229.340,298.656 230.884 M101.062 232.600 C 101.196 233.480,101.372 234.275,101.453 234.367 C 101.756 234.710,101.529 232.568,101.181 231.800 C 100.929 231.242,100.893 231.485,101.062 232.600 M227.851 235.604 C 228.539 236.372,229.754 237.869,230.551 238.931 C 231.348 239.992,232.000 240.729,232.000 240.568 C 232.000 240.103,228.952 236.276,227.719 235.191 C 226.718 234.311,226.732 234.355,227.851 235.604 M101.668 235.200 C 101.688 236.239,102.318 237.946,102.332 237.000 C 102.338 236.560,102.189 235.840,102.000 235.400 C 101.789 234.910,101.661 234.832,101.668 235.200 M134.971 236.932 C 134.859 237.224,134.821 239.069,134.887 241.032 L 135.007 244.600 135.203 240.499 C 135.398 236.432,135.364 235.907,134.971 236.932 M162.154 241.200 C 162.154 243.950,162.218 245.075,162.296 243.700 C 162.374 242.325,162.374 240.075,162.296 238.700 C 162.218 237.325,162.154 238.450,162.154 241.200 M264.790 238.319 L 264.983 240.200 265.119 238.647 C 265.193 237.793,265.107 236.947,264.926 236.766 C 264.745 236.585,264.684 237.284,264.790 238.319 M168.895 239.023 C 168.403 239.774,168.000 240.523,168.000 240.687 C 168.000 240.851,168.466 240.300,169.036 239.462 C 169.605 238.624,170.008 237.875,169.931 237.798 C 169.854 237.720,169.388 238.272,168.895 239.023 M237.757 244.800 C 237.757 247.770,237.820 248.985,237.897 247.500 C 237.974 246.015,237.974 243.585,237.897 242.100 C 237.820 240.615,237.757 241.830,237.757 244.800 M165.849 245.815 C 165.712 246.173,165.621 246.946,165.646 247.533 C 165.680 248.332,165.770 248.198,166.004 247.000 C 166.335 245.300,166.262 244.740,165.849 245.815 M104.800 245.729 C 104.800 246.232,106.900 251.233,107.049 251.085 C 107.131 251.002,106.731 249.779,106.159 248.367 C 105.147 245.866,104.800 245.193,104.800 245.729 M233.873 247.200 C 234.004 248.190,234.176 249.075,234.256 249.167 C 234.557 249.514,234.328 246.964,233.990 246.200 C 233.753 245.666,233.714 245.998,233.873 247.200 M264.477 250.774 C 264.417 252.787,264.206 253.572,263.511 254.374 L 262.623 255.400 263.732 254.370 C 264.761 253.415,264.831 253.154,264.698 250.770 L 264.554 248.200 264.477 250.774 M135.246 253.054 C 135.217 253.588,135.612 254.159,136.300 254.578 C 137.390 255.242,137.393 255.241,136.543 254.494 C 136.072 254.080,135.597 253.395,135.489 252.971 C 135.311 252.272,135.288 252.280,135.246 253.054 M165.693 254.400 C 165.693 255.170,165.775 255.485,165.876 255.100 C 165.976 254.715,165.976 254.085,165.876 253.700 C 165.775 253.315,165.693 253.630,165.693 254.400 M234.093 254.400 C 234.093 255.170,234.175 255.485,234.276 255.100 C 234.376 254.715,234.376 254.085,234.276 253.700 C 234.175 253.315,234.093 253.630,234.093 254.400 M159.400 255.444 L 157.800 256.876 159.600 255.561 C 160.590 254.837,161.475 254.190,161.567 254.123 C 161.658 254.055,161.568 254.003,161.367 254.006 C 161.165 254.009,160.280 254.656,159.400 255.444 M240.488 255.801 C 241.299 256.352,242.145 257.117,242.369 257.501 C 242.593 257.886,242.781 257.988,242.788 257.729 C 242.801 257.200,240.039 254.800,239.416 254.800 C 239.195 254.800,239.678 255.251,240.488 255.801 M261.000 256.250 C 260.281 256.862,260.134 257.105,260.633 256.857 C 261.366 256.493,262.741 255.176,262.349 255.214 C 262.267 255.222,261.660 255.688,261.000 256.250 M138.678 256.566 C 139.295 257.097,139.870 257.462,139.957 257.376 C 140.151 257.183,138.321 255.632,137.878 255.613 C 137.700 255.606,138.060 256.035,138.678 256.566 M166.400 257.884 C 166.400 258.451,167.563 261.200,167.802 261.200 C 167.907 261.200,167.696 260.435,167.332 259.500 C 166.595 257.607,166.400 257.269,166.400 257.884 M232.713 259.381 C 232.342 260.381,232.117 261.200,232.214 261.200 C 232.493 261.200,233.631 258.294,233.503 257.909 C 233.439 257.718,233.084 258.380,232.713 259.381 M259.778 269.800 C 259.778 276.620,259.832 279.466,259.899 276.125 C 259.966 272.784,259.966 267.204,259.899 263.725 C 259.833 260.246,259.778 262.980,259.778 269.800 M111.440 260.402 C 112.039 261.503,112.593 262.340,112.671 262.263 C 112.843 262.090,110.808 258.400,110.541 258.400 C 110.436 258.400,110.840 259.301,111.440 260.402 M287.000 262.000 C 286.659 262.660,286.469 263.200,286.579 263.200 C 286.689 263.200,287.059 262.660,287.400 262.000 C 287.741 261.340,287.931 260.800,287.821 260.800 C 287.711 260.800,287.341 261.340,287.000 262.000 M168.015 261.800 C 168.017 262.020,168.386 262.650,168.836 263.200 C 169.379 263.864,169.515 263.931,169.240 263.400 C 168.566 262.095,168.012 261.372,168.015 261.800 M231.078 262.776 C 230.704 263.409,229.769 264.680,228.999 265.601 C 227.609 267.265,227.213 268.400,228.024 268.400 C 228.257 268.400,228.342 268.230,228.214 268.022 C 228.085 267.814,228.910 266.370,230.047 264.812 C 231.183 263.254,232.033 261.900,231.936 261.802 C 231.838 261.705,231.452 262.143,231.078 262.776 M113.812 264.400 C 114.542 265.729,118.038 270.800,118.224 270.800 C 118.447 270.800,114.524 264.831,113.887 264.200 C 113.615 263.931,113.591 263.997,113.812 264.400 M170.825 265.937 C 171.879 267.344,172.019 267.743,171.563 268.031 C 171.109 268.319,171.135 268.389,171.700 268.394 C 172.773 268.403,172.531 267.559,170.956 265.800 L 169.524 264.200 170.825 265.937 M283.057 268.200 C 281.813 270.070,280.880 271.600,280.985 271.600 C 281.090 271.600,282.049 270.295,283.117 268.700 C 285.421 265.258,285.699 264.800,285.484 264.800 C 285.394 264.800,284.302 266.330,283.057 268.200 M167.575 269.100 C 168.128 270.062,169.740 271.944,169.374 271.200 C 169.211 270.870,168.818 270.296,168.500 269.925 C 168.182 269.554,168.040 269.059,168.184 268.825 C 168.329 268.591,168.160 268.400,167.810 268.400 C 167.315 268.400,167.263 268.558,167.575 269.100 M231.685 268.700 C 231.732 268.865,231.522 269.450,231.219 270.000 C 230.708 270.928,230.718 270.959,231.356 270.433 C 232.473 269.511,232.942 268.400,232.214 268.400 C 231.876 268.400,231.638 268.535,231.685 268.700 M119.375 272.532 C 119.991 273.339,120.576 274.000,120.675 274.000 C 120.953 274.000,119.221 271.660,118.709 271.344 C 118.459 271.189,118.759 271.724,119.375 272.532 M229.977 272.261 C 229.755 272.844,229.632 273.497,229.704 273.712 C 229.776 273.927,230.035 273.450,230.280 272.651 C 230.794 270.974,230.574 270.690,229.977 272.261 M169.893 274.200 C 170.013 275.520,170.176 276.675,170.255 276.767 C 170.551 277.107,170.331 273.370,170.010 272.600 C 169.808 272.117,169.762 272.751,169.893 274.200 M278.852 273.929 C 277.445 275.821,277.707 276.851,279.576 276.775 C 279.928 276.760,279.770 276.577,279.215 276.356 C 277.796 275.790,277.796 275.807,279.227 274.027 C 279.946 273.132,280.459 272.336,280.367 272.258 C 280.275 272.180,279.593 272.932,278.852 273.929 M121.396 275.062 C 121.581 275.743,121.396 276.009,120.515 276.330 C 119.902 276.554,119.681 276.751,120.024 276.768 C 121.251 276.831,122.163 275.811,121.637 274.964 C 121.189 274.244,121.175 274.250,121.396 275.062 M229.614 276.881 C 229.567 277.811,230.626 279.197,231.364 279.172 C 232.132 279.146,232.139 279.120,231.457 278.851 C 231.048 278.691,230.469 278.118,230.171 277.580 C 229.872 277.041,229.622 276.727,229.614 276.881 M281.000 277.200 C 281.440 277.389,282.070 277.544,282.400 277.544 C 282.778 277.544,282.704 277.417,282.200 277.200 C 281.760 277.011,281.130 276.856,280.800 276.856 C 280.422 276.856,280.496 276.983,281.000 277.200 M162.600 279.615 C 161.844 279.818,162.362 279.854,164.000 279.715 C 165.430 279.593,166.675 279.428,166.767 279.347 C 167.070 279.080,163.822 279.289,162.600 279.615 M233.233 279.347 C 233.325 279.428,234.570 279.593,236.000 279.715 C 237.638 279.854,238.156 279.818,237.400 279.615 C 236.178 279.289,232.930 279.080,233.233 279.347 M157.560 280.120 C 157.746 280.306,158.506 280.396,159.249 280.319 C 160.567 280.183,160.558 280.175,158.910 279.980 C 157.981 279.871,157.373 279.933,157.560 280.120 M241.000 280.000 L 239.400 280.286 240.876 280.343 C 241.688 280.374,242.464 280.220,242.600 280.000 C 242.736 279.780,242.792 279.626,242.724 279.657 C 242.656 279.688,241.880 279.842,241.000 280.000 M294.000 281.182 C 294.330 281.405,294.945 281.591,295.367 281.594 C 296.390 281.602,296.071 281.373,294.600 281.044 C 293.724 280.848,293.562 280.885,294.000 281.182 M137.600 282.800 C 136.216 283.091,136.214 283.095,137.400 283.141 C 138.060 283.167,138.870 283.013,139.200 282.800 C 139.866 282.370,139.645 282.370,137.600 282.800 M262.705 283.083 C 263.202 283.179,263.922 283.175,264.305 283.075 C 264.687 282.975,264.280 282.896,263.400 282.901 C 262.520 282.905,262.207 282.987,262.705 283.083 M132.900 283.476 C 133.285 283.576,133.915 283.576,134.300 283.476 C 134.685 283.375,134.370 283.293,133.600 283.293 C 132.830 283.293,132.515 283.375,132.900 283.476 M266.033 283.349 C 266.125 283.430,267.730 283.596,269.600 283.717 C 272.070 283.876,272.508 283.843,271.200 283.598 C 269.368 283.253,265.730 283.078,266.033 283.349 M126.500 284.276 C 126.885 284.376,127.515 284.376,127.900 284.276 C 128.285 284.175,127.970 284.093,127.200 284.093 C 126.430 284.093,126.115 284.175,126.500 284.276 M274.833 284.147 C 274.925 284.228,276.170 284.393,277.600 284.515 C 279.238 284.654,279.756 284.618,279.000 284.415 C 277.778 284.089,274.530 283.880,274.833 284.147 M91.600 285.200 C 90.776 285.464,90.741 285.526,91.400 285.554 C 91.840 285.573,92.470 285.413,92.800 285.200 C 93.501 284.747,93.014 284.747,91.600 285.200 M120.100 285.076 C 120.485 285.176,121.115 285.176,121.500 285.076 C 121.885 284.975,121.570 284.893,120.800 284.893 C 120.030 284.893,119.715 284.975,120.100 285.076 M281.700 285.076 C 282.085 285.176,282.715 285.176,283.100 285.076 C 283.485 284.975,283.170 284.893,282.400 284.893 C 281.630 284.893,281.315 284.975,281.700 285.076 M113.700 285.876 C 114.085 285.976,114.715 285.976,115.100 285.876 C 115.485 285.775,115.170 285.693,114.400 285.693 C 113.630 285.693,113.315 285.775,113.700 285.876 M288.100 285.876 C 288.485 285.976,289.115 285.976,289.500 285.876 C 289.885 285.775,289.570 285.693,288.800 285.693 C 288.030 285.693,287.715 285.775,288.100 285.876 M309.800 286.000 C 310.240 286.189,310.870 286.344,311.200 286.344 C 311.578 286.344,311.504 286.217,311.000 286.000 C 310.560 285.811,309.930 285.656,309.600 285.656 C 309.222 285.656,309.296 285.783,309.800 286.000 M86.400 286.800 C 85.576 287.064,85.541 287.126,86.200 287.154 C 86.640 287.173,87.270 287.013,87.600 286.800 C 88.301 286.347,87.814 286.347,86.400 286.800 M107.300 286.676 C 107.685 286.776,108.315 286.776,108.700 286.676 C 109.085 286.575,108.770 286.493,108.000 286.493 C 107.230 286.493,106.915 286.575,107.300 286.676 M293.233 286.547 C 293.325 286.628,294.570 286.793,296.000 286.915 C 297.638 287.054,298.156 287.018,297.400 286.815 C 296.178 286.489,292.930 286.280,293.233 286.547 M100.900 287.476 C 101.285 287.576,101.915 287.576,102.300 287.476 C 102.685 287.375,102.370 287.293,101.600 287.293 C 100.830 287.293,100.515 287.375,100.900 287.476 M298.833 287.347 C 298.925 287.428,300.170 287.593,301.600 287.715 C 303.238 287.854,303.756 287.818,303.000 287.615 C 301.778 287.289,298.530 287.080,298.833 287.347 M94.500 288.276 C 94.885 288.376,95.515 288.376,95.900 288.276 C 96.285 288.175,95.970 288.093,95.200 288.093 C 94.430 288.093,94.115 288.175,94.500 288.276 M306.600 288.423 C 308.626 288.842,310.263 288.823,308.600 288.400 C 307.940 288.232,306.860 288.094,306.200 288.093 C 305.191 288.092,305.255 288.145,306.600 288.423 M78.300 289.320 C 75.822 290.299,77.653 290.664,81.800 290.018 L 83.800 289.707 81.676 289.653 C 80.374 289.621,79.648 289.445,79.800 289.200 C 80.098 288.718,79.755 288.745,78.300 289.320 M88.100 289.076 C 88.485 289.176,89.115 289.176,89.500 289.076 C 89.885 288.975,89.570 288.893,88.800 288.893 C 88.030 288.893,87.715 288.975,88.100 289.076 M310.833 288.944 C 310.925 289.024,312.080 289.189,313.400 289.312 C 314.891 289.451,315.421 289.411,314.800 289.207 C 313.812 288.884,310.511 288.665,310.833 288.944 M320.000 289.167 C 320.000 289.409,319.165 289.624,318.100 289.653 L 316.200 289.707 318.200 290.018 C 321.832 290.584,323.946 290.239,321.700 289.446 C 321.315 289.311,320.775 289.095,320.500 288.966 C 320.225 288.838,320.000 288.928,320.000 289.167 " stroke="none" fill="#a8c6be" fill-rule="evenodd"></path></g></svg>